<svg width="79" height="20" viewBox="0 0 79 20" fill="none" xmlns="http://www.w3.org/2000/svg">
<g id="Group">
<path id="XMLID_00000044142571092674772350000018078837530939207299_" d="M9.39384 10.0154L0.714111 5.00475L9.33948 0.0249634L18.0192 5.03563L9.39384 10.0154Z" fill="#271B4F"/>
<path id="XMLID_00000042011440966062634870000010539521289055976102_" d="M18.0712 14.9545L9.39272 19.9751L9.3396 10.0476L18.0193 5.03571L18.0712 14.9545Z" fill="#FCD329"/>
<path id="XMLID_00000138565913921844813030000011668455134413920666_" d="M9.39384 19.975L0.714111 14.9644V5.00479L9.39384 10.0155V19.975Z" fill="#CEEAE6"/>
<g id="Group_2">
<path id="Vector" d="M25.9578 5.36563C27.2623 5.36563 28.2049 5.81778 29.0832 6.56641C29.187 6.67018 29.1994 6.82461 29.0956 6.92838C28.9795 7.0445 28.8374 7.17422 28.7336 7.29034C28.6175 7.41882 28.5397 7.40647 28.3976 7.27675C27.7392 6.69489 26.8089 6.26869 25.9429 6.26869C23.9021 6.26869 22.3517 7.9735 22.3517 9.97604C22.3517 11.965 23.9021 13.7093 25.9429 13.7093C27.3636 13.7093 28.2679 13.167 28.2679 13.167V11.3584H26.783C26.6409 11.3584 26.5371 11.2547 26.5371 11.1262V10.6481C26.5371 10.506 26.6409 10.4022 26.783 10.4022H29.0178C29.1475 10.4022 29.25 10.5184 29.25 10.6481V13.6068C29.25 13.671 29.1981 13.7748 29.1462 13.8131C29.1462 13.8131 27.8281 14.6655 25.9553 14.6655C23.3721 14.6655 21.2917 12.6111 21.2917 10.0279C21.2955 7.446 23.3746 5.36563 25.9578 5.36563Z" fill="#271B4F"/>
<path id="Vector_2" d="M31.0213 9.37064H30.6211C30.4914 9.37064 30.3752 9.48676 30.3752 9.61648V14.2924C30.3752 14.4221 30.4914 14.5382 30.6211 14.5382H31.0213C31.1511 14.5382 31.2672 14.4221 31.2672 14.2924V9.61648C31.2672 9.48676 31.1511 9.37064 31.0213 9.37064Z" fill="#271B4F"/>
<path id="Vector_3" d="M31.8614 9.66712C31.7835 9.49911 31.8614 9.37064 32.0553 9.37064H32.4556C32.5717 9.37064 32.6495 9.43487 32.6878 9.5127L34.2901 13.2077H34.3025L36.0073 9.5127C36.0456 9.43487 36.1234 9.37064 36.2272 9.37064H36.5632C36.7572 9.37064 36.835 9.49911 36.7572 9.66712L34.5483 14.537C34.5224 14.6012 34.4445 14.6667 34.3284 14.6667H34.2642C34.1481 14.6667 34.0702 14.6024 34.0443 14.537L31.8614 9.66712Z" fill="#271B4F"/>
<path id="Vector_4" d="M37.9977 9.37064H37.5974C37.4677 9.37064 37.3516 9.48676 37.3516 9.61648V14.2924C37.3516 14.4221 37.4677 14.5382 37.5974 14.5382H37.9977C38.1274 14.5382 38.2435 14.4221 38.2435 14.2924V9.61648C38.2423 9.48676 38.1261 9.37064 37.9977 9.37064Z" fill="#271B4F"/>
<path id="Vector_5" d="M39.5479 9.61539C39.5479 9.48568 39.664 9.36955 39.7937 9.36955H40.0395C40.1557 9.36955 40.2199 9.42144 40.2459 9.52397L40.362 9.92423C40.362 9.92423 41.0983 9.23984 42.1706 9.23984C43.6691 9.23984 44.1731 10.222 44.1731 11.5648V14.29C44.1731 14.4198 44.057 14.5359 43.9273 14.5359H43.5134C43.3849 14.5359 43.2676 14.4198 43.2676 14.29V11.5648C43.2676 10.5827 42.829 10.1046 42.1051 10.1046C41.1366 10.1046 40.4386 10.8409 40.4386 10.8409V14.29C40.4386 14.4198 40.3224 14.5359 40.1927 14.5359H39.7925C39.6628 14.5359 39.5466 14.4198 39.5466 14.29V9.61539H39.5479Z" fill="#271B4F"/>
<path id="Vector_6" d="M45.7608 12.8063C45.7608 12.8063 45.3469 12.2763 45.3469 11.5141C45.3469 10.3133 46.187 9.24103 47.5298 9.24103H49.7127C49.8548 9.24103 49.9586 9.3448 49.9586 9.48687V9.70676C49.9586 9.79695 49.9067 9.91307 49.8165 9.92666L49.1185 10.0687C49.1185 10.0687 49.7004 10.4949 49.7004 11.5153C49.7004 12.6914 48.8603 13.7118 47.5298 13.7118C46.7034 13.7118 46.3031 13.3894 46.3031 13.3894C46.3031 13.3894 45.7348 13.6476 45.7348 14.164C45.7348 14.4864 45.9671 14.7965 46.4452 14.7965H48.3056C49.3903 14.7965 50.2439 15.3265 50.2439 16.4494C50.2439 17.5217 49.1333 18.5422 47.5694 18.5422C45.8386 18.5422 45.0887 17.6119 45.0887 16.7595C45.0887 15.9849 45.7089 15.6353 45.8374 15.5587V15.5204C45.5013 15.4302 44.8948 15.0942 44.8948 14.2937C44.896 13.3103 45.7608 12.8063 45.7608 12.8063ZM47.557 17.7021C48.4094 17.7021 49.2878 17.224 49.2878 16.4754C49.2878 16.3074 49.2099 15.6353 48.3056 15.6353C47.8275 15.6353 47.3495 15.6353 46.8714 15.6353C46.8714 15.6353 46.0054 15.8676 46.0054 16.6298C46.0066 17.2499 46.6787 17.7021 47.557 17.7021ZM48.8356 11.4882C48.8356 10.6358 48.3192 10.0415 47.5434 10.0415C46.7552 10.0415 46.187 10.6358 46.187 11.4882C46.187 12.3406 46.7552 12.9348 47.5434 12.9348C48.3192 12.936 48.8356 12.3406 48.8356 11.4882Z" fill="#271B4F"/>
<path id="Vector_7" d="M53.551 5.74013C53.551 5.61042 53.6548 5.49429 53.7969 5.49429H56.6259C58.2022 5.49429 59.2745 6.51471 59.2745 7.87115C59.2745 8.86563 58.6161 9.58955 58.0083 9.93793C58.6926 10.2221 59.5586 10.8546 59.5586 12.043C59.5586 13.4896 58.4085 14.536 56.7432 14.536H53.7981C53.656 14.536 53.5523 14.4199 53.5523 14.2901V5.74013H53.551ZM56.8445 13.6725C57.7871 13.6725 58.4715 12.9621 58.4715 12.0319C58.4715 11.1152 57.6315 10.4432 56.6246 10.4432H54.4936V13.6725H56.8445ZM56.6246 9.55126C57.6191 9.55126 58.175 8.84092 58.175 7.93662C58.175 7.00639 57.6191 6.38623 56.6246 6.38623H54.5196V9.55126H56.6246Z" fill="#271B4F"/>
<path id="Vector_8" d="M60.5393 5.74013C60.5393 5.61042 60.6554 5.49429 60.7851 5.49429H61.1854C61.3151 5.49429 61.4312 5.61042 61.4312 5.74013V14.2914C61.4312 14.4211 61.3151 14.5372 61.1854 14.5372H60.7851C60.6567 14.5372 60.5393 14.4211 60.5393 14.2914V5.74013Z" fill="#271B4F"/>
<path id="Vector_9" d="M64.9434 9.24103C66.3776 9.24103 67.5142 10.4813 67.5142 11.9403C67.5142 13.4252 66.3776 14.6655 64.9434 14.6655C63.5091 14.6655 62.3726 13.4252 62.3726 11.9403C62.3738 10.4813 63.5103 9.24103 64.9434 9.24103ZM64.9434 13.8267C65.886 13.8267 66.6222 12.9867 66.6222 11.9403C66.6222 10.9199 65.886 10.0934 64.9434 10.0934C64.0008 10.0934 63.2645 10.9199 63.2645 11.9403C63.2645 12.9867 64.0008 13.8267 64.9434 13.8267Z" fill="#271B4F"/>
<path id="Vector_10" d="M70.7189 9.24103C71.4935 9.24103 72.1013 9.55111 72.5658 10.1453C72.6559 10.2614 72.63 10.4171 72.5139 10.5073L72.268 10.7136C72.0741 10.894 72.0098 10.7655 71.8937 10.6617C71.6355 10.3652 71.2093 10.1194 70.7053 10.1194C69.7368 10.1194 68.9869 10.9199 68.9869 11.9539C68.9869 12.9867 69.7232 13.8144 70.6917 13.8144C71.4663 13.8144 71.764 13.4265 72.0605 13.1423C72.2149 12.9879 72.3063 13.0139 72.4484 13.1164L72.5905 13.2202C72.7202 13.3103 72.7585 13.4524 72.6807 13.5821C72.2927 14.2023 71.5824 14.6668 70.7041 14.6668C69.2698 14.6668 68.0554 13.5167 68.0554 11.9675C68.0567 10.4418 69.3106 9.24103 70.7189 9.24103Z" fill="#271B4F"/>
<path id="Vector_11" d="M73.6245 5.74013C73.6245 5.61042 73.7406 5.49429 73.8703 5.49429H74.2706C74.4003 5.49429 74.5165 5.61042 74.5165 5.74013V11.3327L76.7129 9.52408C76.8167 9.4339 76.9193 9.36966 77.023 9.36966H77.721C77.9409 9.36966 77.9273 9.6155 77.8371 9.69209L75.3825 11.6551L78.2374 14.2123C78.3412 14.3025 78.3276 14.5348 78.1077 14.5348H77.3973C77.2812 14.5348 77.191 14.4705 77.1391 14.431L74.5165 11.938V14.2889C74.5165 14.4186 74.4003 14.5348 74.2706 14.5348H73.8703C73.7419 14.5348 73.6245 14.4186 73.6245 14.2889V5.74013Z" fill="#271B4F"/>
</g>
<g id="Group_3">
<path id="Vector_12" d="M32.2557 6.02045H31.6627C31.6232 6.02045 31.5935 5.98833 31.5935 5.95127V5.74743C31.5935 5.71161 31.6232 5.67825 31.6627 5.67825H33.2267C33.2662 5.67825 33.2958 5.71037 33.2958 5.74743V5.95127C33.2958 5.9871 33.2662 6.02045 33.2267 6.02045H32.6337V8.15518C32.6337 8.191 32.6016 8.22436 32.5645 8.22436H32.3248C32.289 8.22436 32.2557 8.19224 32.2557 8.15518V6.02045Z" fill="#271B4F"/>
<path id="Vector_13" d="M33.6406 5.74862C33.6406 5.7128 33.6727 5.67944 33.7098 5.67944H33.9211C33.9569 5.67944 33.9902 5.71156 33.9902 5.74862V6.89011C34.0261 6.86417 34.1941 6.73322 34.4263 6.73322C34.8377 6.73322 35.0341 7.02723 35.0341 7.42379V8.15513C35.0341 8.19096 35.002 8.22431 34.9649 8.22431H34.7611C34.7216 8.22431 34.6919 8.19219 34.6919 8.15513V7.41761C34.6919 7.18166 34.5721 7.05071 34.3831 7.05071C34.1619 7.05071 34.0088 7.21748 33.9902 7.28049V8.15637C33.9902 8.1959 33.9643 8.22555 33.9173 8.22555H33.7098C33.674 8.22555 33.6406 8.19343 33.6406 8.15637V5.74862Z" fill="#271B4F"/>
<path id="Vector_14" d="M36.0856 6.73294C36.4636 6.73294 36.7551 7.01708 36.7551 7.40622C36.7551 7.43216 36.7514 7.47911 36.7477 7.50381C36.744 7.53964 36.7156 7.56558 36.6822 7.56558H35.6927C35.7038 7.76201 35.8743 7.95472 36.1115 7.95472C36.2425 7.95472 36.3623 7.89666 36.4352 7.84972C36.4784 7.82377 36.5044 7.81019 36.5328 7.84601L36.6341 7.98437C36.66 8.01402 36.6699 8.04243 36.6267 8.07826C36.5216 8.16968 36.3326 8.25986 36.088 8.25986C35.6482 8.25986 35.3567 7.91396 35.3567 7.4964C35.3592 7.08626 35.6495 6.73294 36.0856 6.73294ZM36.4166 7.33704C36.4055 7.16285 36.2597 7.01337 36.0819 7.01337C35.8854 7.01337 35.7322 7.15544 35.7112 7.33704H36.4166Z" fill="#271B4F"/>
</g>
<g id="Group_4">
<path id="Vector_15" d="M54.045 16.7096C54.0314 16.6824 53.9981 16.6651 53.9746 16.6651H53.9499C53.9264 16.6651 53.8931 16.6837 53.8795 16.7108L53.1074 18.4045C53.0962 18.4292 53.0975 18.4577 53.1111 18.4787C53.1247 18.5009 53.1494 18.5132 53.1778 18.5132H53.3359C53.3816 18.5132 53.4113 18.4824 53.4224 18.4564C53.4471 18.3984 53.473 18.3415 53.499 18.2847C53.5224 18.2328 53.5447 18.1822 53.5682 18.1303H54.3514L54.4996 18.4564C54.5157 18.4935 54.5453 18.512 54.5861 18.512H54.7442C54.7726 18.512 54.7973 18.4997 54.8109 18.4774C54.8245 18.4564 54.8258 18.428 54.8146 18.4033L54.045 16.7096ZM54.2266 17.8523H53.6929L53.9585 17.2556L54.2266 17.8523Z" fill="#271B4F"/>
<path id="Vector_16" d="M56.3168 17.4398C56.1007 17.3509 56.0167 17.2706 56.0167 17.152C56.0167 17.0841 56.0698 16.9568 56.2699 16.9568C56.3267 16.9568 56.428 16.9766 56.5862 17.0729L56.5936 17.0766C56.6158 17.0902 56.6393 17.0952 56.6615 17.0902C56.6862 17.0841 56.7085 17.0668 56.7233 17.0421L56.7863 16.9469C56.8048 16.9185 56.8048 16.8926 56.8011 16.8753C56.7962 16.8518 56.7813 16.8308 56.7628 16.8185C56.7109 16.7826 56.5232 16.664 56.2798 16.664C55.8523 16.664 55.6979 16.9605 55.6979 17.1607C55.6979 17.4781 55.9265 17.6177 56.1748 17.7227C56.4342 17.8302 56.5355 17.9204 56.5355 18.0439C56.5355 18.1613 56.4293 18.2465 56.2823 18.2465C56.1044 18.2465 55.9203 18.0971 55.8993 18.0798C55.8808 18.0649 55.8585 18.0575 55.8363 18.0612C55.8103 18.0649 55.7869 18.081 55.7683 18.1057C55.7572 18.123 55.7461 18.1403 55.735 18.1588C55.7251 18.1761 55.714 18.1934 55.7029 18.2095L55.7016 18.212C55.6633 18.2774 55.7016 18.312 55.7226 18.3306C55.7597 18.3651 55.9598 18.5381 56.2847 18.5381C56.622 18.5381 56.8765 18.3207 56.8765 18.0316C56.8765 17.6943 56.5874 17.5498 56.3168 17.4398Z" fill="#271B4F"/>
<path id="Vector_17" d="M58.7159 16.6902H58.5504C58.5072 16.6902 58.4713 16.726 58.4713 16.7693V17.4401H57.6115V16.7693C57.6115 16.726 57.5757 16.6902 57.5324 16.6902H57.3669C57.3249 16.6902 57.2878 16.7273 57.2878 16.7693V18.4346C57.2878 18.4766 57.3249 18.5136 57.3669 18.5136H57.5324C57.5757 18.5136 57.6115 18.4778 57.6115 18.4346V17.7378H58.4713V18.4346C58.4713 18.4778 58.5072 18.5136 58.5504 18.5136H58.7159C58.7579 18.5136 58.795 18.4766 58.795 18.4346V16.7693C58.7938 16.7273 58.7579 16.6902 58.7159 16.6902Z" fill="#271B4F"/>
<path id="Vector_18" d="M59.5918 16.6902H59.4262C59.3842 16.6902 59.3472 16.7273 59.3472 16.7693V18.4346C59.3472 18.4766 59.3842 18.5136 59.4262 18.5136H59.5918C59.6338 18.5136 59.6708 18.4766 59.6708 18.4346V16.7693C59.6696 16.7273 59.6325 16.6902 59.5918 16.6902Z" fill="#271B4F"/>
<path id="Vector_19" d="M61.3078 16.6902H60.301C60.2578 16.6902 60.2219 16.726 60.2219 16.7693V18.4346C60.2219 18.4778 60.2578 18.5136 60.301 18.5136H60.4641C60.5061 18.5136 60.5431 18.4766 60.5431 18.4346V17.8033H61.1843C61.2263 17.8033 61.2633 17.7662 61.2633 17.7242V17.5859C61.2633 17.5439 61.2263 17.5068 61.1843 17.5068H60.5431V16.9867H61.3078C61.3511 16.9867 61.3869 16.9509 61.3869 16.9076V16.7668C61.3856 16.726 61.3511 16.6902 61.3078 16.6902Z" fill="#271B4F"/>
<path id="Vector_20" d="M62.7162 16.6902H61.634C61.5908 16.6902 61.5549 16.726 61.5549 16.7693V16.9101C61.5549 16.9534 61.5908 16.9892 61.634 16.9892H62.0133V18.4358C62.0133 18.4778 62.0503 18.5149 62.0923 18.5149H62.2579C62.2999 18.5149 62.3369 18.4778 62.3369 18.4358V16.9892H62.7162C62.7594 16.9892 62.7952 16.9534 62.7952 16.9101V16.7693C62.7952 16.726 62.7594 16.6902 62.7162 16.6902Z" fill="#271B4F"/>
<path id="Vector_21" d="M64.2713 17.8723H64.0984V16.7913C64.0984 16.7481 64.0625 16.7122 64.0193 16.7122H63.9267C63.9094 16.7122 63.8809 16.7221 63.8649 16.7394L62.9272 17.8982V18.06C62.9272 18.1033 62.9631 18.1391 63.0063 18.1391H63.7957V18.4356C63.7957 18.4776 63.8328 18.5147 63.8748 18.5147H64.023C64.065 18.5147 64.1021 18.4776 64.1021 18.4356L64.0996 18.1342H64.2726C64.3158 18.1342 64.3516 18.0983 64.3516 18.0551V17.9489C64.3504 17.9056 64.3158 17.8723 64.2713 17.8723ZM63.8056 17.2447V17.8673H63.2954L63.8056 17.2447Z" fill="#271B4F"/>
<path id="Vector_22" d="M66.7568 18.0592C66.7284 18.0357 66.6889 18.0357 66.658 18.0604C66.5505 18.1432 66.4257 18.2198 66.2441 18.2198C65.9118 18.2198 65.6413 17.9418 65.6413 17.5996C65.6413 17.2562 65.9106 16.9758 66.2416 16.9758C66.3862 16.9758 66.5406 17.0363 66.6555 17.1351C66.679 17.1586 66.7 17.1611 66.7148 17.1611C66.7284 17.1598 66.7482 17.1549 66.763 17.1351L66.8729 17.0227C66.889 17.0066 66.8976 16.9856 66.8964 16.9646C66.8964 16.9436 66.8865 16.9226 66.868 16.9066C66.6753 16.7398 66.4813 16.6657 66.2392 16.6657C65.7216 16.6657 65.3003 17.0869 65.3003 17.6046C65.3003 18.1197 65.7216 18.5385 66.2392 18.5385C66.4825 18.5385 66.7024 18.4508 66.8729 18.2853C66.889 18.2692 66.8976 18.2457 66.8976 18.2235C66.8976 18.2037 66.889 18.1852 66.8754 18.1741L66.7568 18.0592Z" fill="#271B4F"/>
<path id="Vector_23" d="M68.1036 16.6657C67.5885 16.6657 67.1697 17.0869 67.1697 17.6046C67.1697 18.1284 67.5798 18.5385 68.1036 18.5385C68.6287 18.5385 69.04 18.1284 69.04 17.6046C69.04 17.0869 68.62 16.6657 68.1036 16.6657ZM68.1036 18.2247C67.7614 18.2247 67.4822 17.9468 67.4822 17.6033C67.4822 17.2636 67.7664 16.977 68.1036 16.977C68.4421 16.977 68.7275 17.2636 68.7275 17.6033C68.7275 17.9468 68.4471 18.2247 68.1036 18.2247Z" fill="#271B4F"/>
<path id="Vector_24" d="M71.0325 16.7262C71.0239 16.6916 70.9905 16.6657 70.9571 16.6657H70.9164C70.8855 16.6657 70.8534 16.6867 70.8447 16.7126L70.3444 17.9406L69.8428 16.7151C69.833 16.6854 69.7971 16.6657 69.7712 16.6657H69.7304C69.6971 16.6657 69.6637 16.6929 69.6551 16.7262L69.3425 18.4199C69.3376 18.4545 69.3487 18.4755 69.3598 18.4879C69.3697 18.499 69.3882 18.5138 69.4216 18.5138H69.5847C69.6205 18.5138 69.6563 18.4854 69.66 18.452L69.8268 17.4205L70.2468 18.4891C70.2567 18.5175 70.2863 18.5385 70.3185 18.5385H70.3642C70.3975 18.5385 70.4259 18.5187 70.4358 18.4916L70.8534 17.4254L71.0239 18.457C71.0337 18.4903 71.0671 18.515 71.1017 18.515H71.2648C71.2907 18.515 71.3129 18.5051 71.3265 18.4879C71.3413 18.4706 71.3451 18.4459 71.3401 18.4199L71.0325 16.7262Z" fill="#271B4F"/>
<path id="Vector_25" d="M72.4286 16.6902H71.8554C71.8122 16.6902 71.7764 16.726 71.7764 16.7693V18.4346C71.7764 18.4778 71.8122 18.5136 71.8554 18.5136H72.0185C72.0605 18.5136 72.0976 18.4766 72.0976 18.4346V17.8737H72.4311C72.7573 17.8737 73.0229 17.6056 73.0229 17.277C73.0229 16.9534 72.7572 16.6902 72.4286 16.6902ZM72.0976 17.004H72.4138C72.5732 17.004 72.7029 17.1251 72.7029 17.2745C72.7029 17.4351 72.5732 17.5661 72.4138 17.5661H72.0976V17.004Z" fill="#271B4F"/>
<path id="Vector_26" d="M74.016 16.7102C74.0024 16.683 73.969 16.6657 73.9455 16.6657H73.9208C73.8974 16.6657 73.864 16.6842 73.8504 16.7114L73.0783 18.4051C73.0672 18.4298 73.0684 18.4582 73.082 18.4792C73.0956 18.5014 73.1203 18.5138 73.1487 18.5138H73.3068C73.3526 18.5138 73.3822 18.4829 73.3933 18.457C73.418 18.4001 73.444 18.3446 73.4687 18.2877C73.4922 18.2358 73.5156 18.184 73.5391 18.1308H74.3223L74.4706 18.457C74.4866 18.4928 74.5175 18.5126 74.557 18.5126H74.7152C74.7436 18.5126 74.7683 18.5002 74.7819 18.478C74.7955 18.457 74.7967 18.4286 74.7856 18.4038L74.016 16.7102ZM74.1976 17.8529H73.6639L73.9295 17.2562L74.1976 17.8529Z" fill="#271B4F"/>
<path id="Vector_27" d="M76.5487 16.6904H76.3881C76.3448 16.6904 76.309 16.7262 76.309 16.7695V17.8801L75.2589 16.6657H75.1823C75.1391 16.6657 75.1033 16.7003 75.1033 16.7423V18.436C75.1033 18.478 75.1403 18.515 75.1823 18.515H75.3405C75.3837 18.515 75.4195 18.4792 75.4195 18.436V17.292L76.4597 18.5286L76.4696 18.5397H76.5499C76.5931 18.5397 76.629 18.5052 76.629 18.4631V16.7695C76.6265 16.7274 76.5894 16.6904 76.5487 16.6904Z" fill="#271B4F"/>
<path id="Vector_28" d="M78.441 16.7297C78.4274 16.705 78.4014 16.6902 78.3718 16.6902H78.1828C78.1544 16.6902 78.1309 16.7087 78.1173 16.726L77.6874 17.3326L77.2563 16.726C77.239 16.7026 77.2167 16.6915 77.1908 16.6915H77.0042C76.9746 16.6915 76.9487 16.7063 76.9351 16.731C76.9215 16.7557 76.9215 16.7866 76.9388 16.8138L77.5219 17.6464V18.437C77.5219 18.4803 77.5577 18.5161 77.6009 18.5161H77.7665C77.8085 18.5161 77.8455 18.479 77.8455 18.437V17.6439L78.4373 16.8125C78.4546 16.7853 78.4558 16.7545 78.441 16.7297Z" fill="#271B4F"/>
</g>
</g>
</svg>
