<svg width="73" height="16" viewBox="0 0 73 16" fill="none" xmlns="http://www.w3.org/2000/svg">
<path d="M53.2013 2.07626H45.8717C45.6557 2.07626 45.5117 2.20955 45.5117 2.4465V3.03888C45.5117 3.26102 45.6413 3.40911 45.8717 3.40911H48.8525V13.5832C48.8525 13.7905 48.9821 13.9238 49.2125 13.9238H49.8605C50.0621 13.9238 50.1917 13.7905 50.1917 13.5832V3.39431H53.1869C53.3885 3.39431 53.5181 3.26102 53.5181 3.02407V2.43169C53.5325 2.20955 53.4029 2.07626 53.2013 2.07626Z" fill="#090304"/>
<path d="M7.61015 8.57762C7.22135 8.11852 6.61656 7.7779 5.83896 7.54095L3.57818 6.87453C3.33339 6.80048 3.08859 6.71162 2.87259 6.62277C2.67099 6.53391 2.49819 6.43024 2.35419 6.29696C2.22459 6.17848 2.1094 6.01558 2.0374 5.83787C1.9654 5.66015 1.9222 5.4232 1.9222 5.15663V4.99373C1.9222 4.4754 2.0806 4.07554 2.38299 3.77935C2.69979 3.48316 3.14619 3.33507 3.72218 3.33507H7.19255C7.40855 3.33507 7.55255 3.20178 7.55255 2.99445V2.41688C7.55255 2.20955 7.42295 2.07626 7.19255 2.07626H3.53498C3.10299 2.07626 2.69979 2.15031 2.35419 2.2836C1.9942 2.41688 1.6774 2.6094 1.4182 2.86116C1.159 3.11293 0.943005 3.40911 0.799006 3.76454C0.655007 4.10516 0.583008 4.49021 0.583008 4.91968V5.31953C0.583008 6.03039 0.784606 6.62277 1.1734 7.09667C1.5622 7.55576 2.1094 7.89638 2.80059 8.10371L5.01817 8.75533C5.32057 8.84419 5.59417 8.94785 5.82457 9.03671C6.05496 9.14038 6.24216 9.25885 6.40056 9.40695C6.55896 9.55504 6.67416 9.71794 6.74616 9.92528C6.83256 10.1326 6.87576 10.3844 6.87576 10.6806V11.036C6.87576 11.5395 6.73176 11.9246 6.42936 12.2207C6.12696 12.5169 5.68057 12.6502 5.10457 12.6502H1.4182C1.2022 12.6502 1.0582 12.7835 1.0582 12.9908V13.5684C1.0582 13.7757 1.1878 13.909 1.4182 13.909H5.30617C6.18456 13.909 6.89016 13.6425 7.42295 13.1241C7.94135 12.6058 8.21495 11.9097 8.21495 11.0804V10.5325C8.21495 9.68833 8.01335 9.03671 7.61015 8.57762Z" fill="#090304"/>
<path d="M28.3742 2.07626H27.7262C27.5102 2.07626 27.3662 2.20955 27.3662 2.4465V13.5684C27.3662 13.7757 27.4958 13.909 27.7262 13.909H28.3742C28.5758 13.909 28.7054 13.7757 28.7054 13.5684V2.4465C28.7198 2.20955 28.5902 2.07626 28.3742 2.07626Z" fill="#090304"/>
<path d="M20.4687 2.07626H19.8207C19.6047 2.07626 19.4607 2.20955 19.4607 2.4465V7.49653C19.4463 7.49653 19.4175 7.48172 19.4031 7.48172H15.2703C15.2559 7.48172 15.2415 7.48172 15.2271 7.48172V2.4465C15.2271 2.22436 15.0975 2.07626 14.8959 2.07626H14.2335C14.0175 2.07626 13.8735 2.20955 13.8735 2.4465V13.5684C13.8735 13.7757 14.0031 13.909 14.2335 13.909H14.8815C15.0831 13.909 15.2127 13.7757 15.2127 13.5684V8.72571H19.3887C19.4175 8.72571 19.4319 8.7109 19.4463 8.7109V13.5684C19.4463 13.7757 19.5759 13.909 19.8063 13.909H20.4543C20.6559 13.909 20.7855 13.7757 20.7855 13.5684V2.4465C20.8143 2.20955 20.6847 2.07626 20.4687 2.07626Z" fill="#090304"/>
<path d="M40.2538 2.07626H35.5883C35.3723 2.07626 35.2859 2.26879 35.2859 2.49093L35.2715 13.5684C35.2715 13.7757 35.4011 13.909 35.6315 13.909H36.2795C36.4811 13.909 36.6107 13.7757 36.6107 13.5684V8.72571H39.8074C39.9946 8.72571 40.1098 8.59243 40.1098 8.38509V7.82233C40.1098 7.615 39.9946 7.48172 39.8074 7.48172H36.6107V3.39431H40.2394C40.441 3.39431 40.5706 3.26102 40.5706 3.02407V2.43169C40.585 2.20955 40.4554 2.07626 40.2538 2.07626Z" fill="#090304"/>
<path d="M65.9572 3.58673L61.81 9.06624C61.7956 9.09585 61.7812 9.11066 61.7812 9.14028V9.76228C61.7812 9.83633 61.8388 9.89556 61.9108 9.89556H65.626C65.698 9.89556 65.7556 9.9548 65.7556 10.0289V12.2503C65.7556 12.3243 65.8132 12.3836 65.8852 12.3836H66.6772C66.7492 12.3836 66.8068 12.3243 66.8068 12.2503V3.66078C66.8068 3.58673 66.7492 3.5275 66.6772 3.5275H66.0724C66.0292 3.54231 65.986 3.55712 65.9572 3.58673ZM63.1924 8.71081L65.5252 5.64525C65.5972 5.54158 65.7556 5.60082 65.7556 5.7193V8.78485C65.7556 8.8589 65.698 8.91814 65.626 8.91814H63.2932C63.178 8.93295 63.1204 8.79966 63.1924 8.71081Z" fill="#090304"/>
<path d="M65.0805 0.284332C60.9477 0.284332 57.5781 3.74975 57.5781 8.00006C57.5781 12.2504 60.9477 15.7158 65.0805 15.7158C69.2132 15.7158 72.5828 12.2504 72.5828 8.00006C72.5828 3.73494 69.2132 0.284332 65.0805 0.284332ZM71.5172 8.00006C71.5172 11.6432 68.6372 14.6199 65.0805 14.6199C61.5237 14.6199 58.6437 11.6432 58.6437 8.00006C58.6437 4.35694 61.5237 1.38023 65.0805 1.38023C68.6372 1.38023 71.5172 4.34213 71.5172 8.00006Z" fill="#136EF6"/>
</svg>
